<svg xmlns="http://www.w3.org/2000/svg" viewBox="138 365 298 298">
  <rect x="138" y="365" width="298" height="298" rx="49" fill="#0c0e10"/>
  <path d="
M249.893478,458.094177 
	C239.079285,449.753632 240.314331,431.022064 247.104172,421.188538 
	C251.760391,414.445129 258.277588,409.911774 266.127228,407.240753 
	C273.351562,404.782501 279.984589,406.024780 286.143036,410.054382 
	C288.893463,411.854065 290.993500,411.780884 293.873627,410.180237 
	C305.866547,403.514893 318.177948,406.058167 330.139435,417.309662 
	C337.987885,424.692352 341.081451,440.307526 335.971924,450.197174 
	C332.649109,456.628662 326.957977,461.269714 321.171539,465.524902 
	C312.535126,471.875885 308.465668,481.123535 304.762054,490.644012 
	C304.459106,491.422760 304.478394,492.288879 305.833710,493.668671 
	C310.404999,490.932343 314.679749,487.496185 318.531952,483.493652 
	C324.191010,477.613800 327.226318,470.141388 330.840424,463.022247 
	C337.977264,448.963928 349.192535,442.492615 363.828918,445.925812 
	C375.657074,448.700348 384.458984,456.414581 389.555664,467.766663 
	C391.288025,471.625153 389.747620,475.312805 388.440552,478.903168 
	C387.253784,482.162994 387.597412,484.423004 390.995300,486.312592 
	C396.714081,489.492737 399.270172,494.767151 399.326324,501.257111 
	C399.353699,504.422729 399.450012,507.597687 399.263275,510.753510 
	C398.516876,523.367859 392.480652,532.650208 380.854340,537.581787 
	C370.783112,541.853699 360.869507,540.258118 351.846344,534.270630 
	C337.855225,524.986572 327.550720,521.882812 313.370514,523.666626 
	C320.284515,529.549133 326.959503,534.104553 335.161987,535.807312 
	C341.511353,537.125366 348.052521,537.532776 354.387482,538.903870 
	C367.924530,541.833862 376.854980,549.499695 379.693909,563.711548 
	C382.961487,580.069397 368.867340,598.086731 352.273315,598.138977 
	C350.110168,598.145813 348.167053,598.286499 347.556274,600.762146 
	C344.816620,611.866760 336.229126,615.783386 326.320312,617.750977 
	C310.879608,620.817261 299.083099,615.783508 292.182251,603.279236 
	C287.677460,595.116638 289.138275,586.485107 292.294189,578.594299 
	C297.575836,565.388489 292.384979,553.592896 288.946838,541.358337 
	C284.321533,551.491394 281.509705,561.849915 284.249115,572.990540 
	C286.349426,581.532104 286.614258,590.173523 284.982635,598.724304 
	C283.119415,608.488953 272.274811,617.344971 260.540680,618.799561 
	C251.406509,619.931885 242.620010,618.932800 235.112946,612.618347 
	C231.399811,609.495178 229.644196,605.583374 229.087234,600.967102 
	C228.794968,598.544861 227.990891,596.412292 225.126022,597.117798 
	C215.179062,599.567200 209.662720,593.510986 205.204193,586.405701 
	C198.398361,575.559509 194.416809,564.021118 201.403641,551.623596 
	C206.614288,542.377808 214.599915,537.413391 225.384308,536.999878 
	C236.059021,536.590637 246.702057,535.836487 255.861328,529.315186 
	C256.810883,528.639160 257.796906,528.012024 258.719604,527.301941 
	C259.094574,527.013367 259.345367,526.563538 260.386719,525.287964 
	C251.904724,524.660095 244.315460,525.072937 237.059113,527.955383 
	C232.431259,529.793823 227.782562,531.853271 223.626160,534.556152 
	C208.043625,544.689636 184.756500,533.234619 179.894745,515.052612 
	C178.439102,509.608765 176.721680,504.278107 178.446381,498.408295 
	C179.974869,493.206299 182.320099,488.815613 187.035004,486.044434 
	C189.464325,484.616577 190.216461,482.878052 189.344925,480.247498 
	C185.857208,469.720673 189.561340,461.169281 197.247284,454.199219 
	C207.601181,444.809723 219.958435,442.640228 233.175156,446.246552 
	C241.442703,448.502472 245.879822,454.921021 248.335434,462.843933 
	C251.814087,474.067505 257.353363,483.952454 266.884338,491.227051 
	C268.707489,492.618652 270.390289,494.289246 273.574799,494.158478 
	C269.410370,479.590973 261.234772,468.034729 249.893478,458.094177 
z" fill="#f0ece4"/>
</svg>